<svg width="25" height="24" viewBox="0 0 25 24" fill="none" xmlns="http://www.w3.org/2000/svg">
<g clip-path="url(#clip0_506_5129)">
<path d="M12.667 16.875C8.32449 16.875 4.79199 13.3425 4.79199 9C4.79199 4.6575 8.32449 1.125 12.667 1.125C17.0095 1.125 20.542 4.6575 20.542 9C20.542 13.3425 17.0095 16.875 12.667 16.875ZM12.667 1.875C8.73699 1.875 5.54199 5.07 5.54199 9C5.54199 12.93 8.73699 16.125 12.667 16.125C16.597 16.125 19.792 12.93 19.792 9C19.792 5.07 16.597 1.875 12.667 1.875Z" fill="white"/>
<path d="M13.042 10.1025V10.7288C13.042 10.8225 13.0045 10.9125 12.9407 10.9763L12.0182 11.8988C11.9545 11.9625 11.917 12.0525 11.917 12.1463V12.6038C11.917 12.6975 11.8795 12.7875 11.8157 12.8513L11.227 13.44C11.188 13.479 11.1585 13.5265 11.1407 13.5788L10.9045 14.2913C10.8746 14.3797 10.8108 14.4527 10.7271 14.4942C10.6435 14.5357 10.5468 14.5423 10.4582 14.5125L9.90699 14.3288C9.83673 14.3058 9.7756 14.2611 9.73244 14.2011C9.68929 14.1411 9.66637 14.0689 9.66699 13.995V13.5825C9.66699 13.53 9.65574 13.4738 9.62949 13.425L9.32949 12.825C9.30434 12.7764 9.29147 12.7223 9.29199 12.6675V11.4863C9.29199 11.3438 9.20574 11.2163 9.07074 11.16L7.63824 10.59C7.57315 10.5637 7.51734 10.5187 7.47794 10.4606C7.43854 10.4025 7.41732 10.334 7.41699 10.2638V9.52127C7.41699 9.42752 7.45449 9.33752 7.51824 9.27377L7.69074 9.10127C7.75449 9.03752 7.79199 8.94752 7.79199 8.85377V8.43752C7.79199 8.32127 7.73199 8.21252 7.63449 8.14502L6.82449 7.60502C6.77657 7.57261 6.7372 7.52908 6.70977 7.47814C6.68235 7.4272 6.66767 7.37037 6.66699 7.31252V6.18002C6.66699 6.06752 6.61449 5.96252 6.52074 5.89502L6.00699 5.55752C6.82074 3.97502 8.18199 2.72627 9.84324 2.05127L10.312 2.52002C10.3795 2.58752 10.417 2.67752 10.417 2.77127V3.39752C10.417 3.59252 10.5745 3.75002 10.7695 3.75002H10.8145C11.0095 3.75002 11.167 3.90752 11.167 4.10252V4.32377C11.167 4.43627 11.1145 4.53752 11.0282 4.60502L9.71199 5.59127C9.68199 5.61377 9.64824 5.63252 9.61449 5.64377L8.78199 5.92127C8.63949 5.96627 8.54199 6.10127 8.54199 6.25502V6.97877C8.54199 7.07252 8.57949 7.16252 8.64324 7.22627L9.19074 7.77377C9.25449 7.83752 9.34449 7.87502 9.43824 7.87502H10.0645C10.2595 7.87502 10.417 8.03252 10.417 8.22752V8.37002C10.417 8.52377 10.5145 8.65877 10.657 8.70377L11.302 8.92127C11.4445 8.96627 11.542 9.10127 11.542 9.25502V9.39752C11.542 9.59252 11.6995 9.75002 11.8945 9.75002H12.6895C12.8845 9.75002 13.042 9.90752 13.042 10.1025ZM20.167 9.00002C20.167 10.3875 19.7882 11.6925 19.1245 12.8063C19.0195 12.9938 18.9032 13.1738 18.772 13.35L17.6995 12.48C17.6516 12.4476 17.6122 12.4041 17.5848 12.3531C17.5573 12.3022 17.5427 12.2454 17.542 12.1875V11.0625C17.542 10.9463 17.482 10.8375 17.3845 10.77L16.5745 10.23C16.5266 10.1976 16.4872 10.1541 16.4598 10.1031C16.4323 10.0522 16.4177 9.99537 16.417 9.93752V8.77127C16.417 8.67752 16.4545 8.58752 16.5182 8.52377L16.6907 8.35127C16.7545 8.28752 16.8445 8.25002 16.9382 8.25002H17.5645C17.6109 8.25037 17.6569 8.24149 17.6998 8.2239C17.7427 8.20631 17.7817 8.18036 17.8145 8.14755C17.8473 8.11475 17.8733 8.07575 17.8909 8.03283C17.9085 7.9899 17.9173 7.94391 17.917 7.89752V7.71752C17.917 7.58252 17.992 7.46252 18.112 7.40252L18.472 7.22252C18.592 7.16252 18.667 7.04252 18.667 6.90752V6.72752C18.667 6.53252 18.5095 6.37502 18.3145 6.37502H17.9995C17.947 6.37502 17.8907 6.38627 17.842 6.41252L17.437 6.61502L17.392 6.63752C17.326 6.67055 17.2513 6.68182 17.1785 6.66969C17.1057 6.65756 17.0387 6.62266 16.987 6.57002L16.5182 6.10127C16.4523 6.03625 16.3634 5.99987 16.2707 6.00002H14.8945C14.6995 6.00002 14.542 5.84252 14.542 5.64752V5.46752C14.542 5.33252 14.617 5.21252 14.737 5.15252L15.097 4.97252C15.217 4.91252 15.292 4.79252 15.292 4.65752V4.27127C15.292 4.17752 15.3295 4.08752 15.3932 4.02377L15.697 3.72002C15.7682 3.64877 15.7982 3.55877 15.7982 3.47252C15.7982 3.34502 15.7307 3.21752 15.607 3.15752C15.5239 3.11531 15.4607 3.04205 15.4312 2.9536C15.4018 2.86516 15.4083 2.76866 15.4495 2.68502L15.7195 2.14877C15.9182 2.23502 16.1095 2.33252 16.297 2.44127H16.3007C18.607 3.72002 20.167 6.17252 20.167 9.00002ZM12.0032 21.9188C10.132 21.36 4.61574 19.965 1.04199 21.75L2.54199 11.625C2.54199 11.625 2.84949 11.625 3.37074 11.6475L2.09199 19.95L2.60199 19.8713C2.60199 19.8713 3.68199 19.6988 5.12574 19.6988C7.39074 19.6988 10.3457 20.1 12.0032 21.9188ZM24.292 21.75C20.7182 19.9613 15.1832 21.36 13.312 21.9188C14.9695 20.1 17.932 19.6988 20.2045 19.6988C21.652 19.6988 22.7207 19.8675 22.732 19.8713L23.242 19.95L21.9632 11.6475C22.4845 11.625 22.792 11.625 22.792 11.625L24.292 21.75Z" fill="white"/>
<path d="M12.6482 17.625V22.125C9.92574 18.3112 2.54199 19.5 2.54199 19.5L4.04199 9.375H4.05324C4.24824 13.95 8.02824 17.6138 12.6482 17.625ZM22.792 19.5C22.792 19.5 15.3895 18.3112 12.667 22.125V17.625C17.2945 17.625 21.0857 13.9575 21.2807 9.375H21.292L22.792 19.5Z" fill="white"/>
</g>
<defs>
<clipPath id="clip0_506_5129">
<rect width="24" height="24" fill="white" transform="translate(0.666992)"/>
</clipPath>
</defs>
</svg>
