<svg width="25" height="24" viewBox="0 0 25 24" fill="none" xmlns="http://www.w3.org/2000/svg">
<path d="M20.2215 12.3504C20.1657 12.1512 20.2824 11.944 20.4807 11.8882C20.6799 11.8324 20.8871 11.9491 20.9429 12.1488C21.8227 15.2754 20.9377 18.5894 18.6746 20.8535C15.204 24.3241 9.57662 24.3241 6.10599 20.8535C4.49818 19.2457 3.50302 17.0243 3.50302 14.5699C3.50302 14.1874 3.53209 13.721 3.58787 13.3446C3.64365 12.9354 3.72849 12.5355 3.83771 12.1488C3.89349 11.9496 4.10068 11.8324 4.29896 11.8882C4.49818 11.944 4.61537 12.1512 4.55959 12.3504C4.45881 12.7066 4.38146 13.0732 4.3299 13.4468C3.65631 18.3363 7.44568 22.7051 12.3901 22.7051C17.3358 22.7051 21.1252 18.3349 20.4516 13.4449C20.4 13.0752 20.3231 12.7095 20.2215 12.3504ZM12.7313 1.83585L13.3876 3.31053L14.994 3.47788C15.3221 3.51256 15.4402 3.91616 15.2054 4.12897L14.0054 5.20944L14.3415 6.78913C14.408 7.10131 14.0705 7.35913 13.7766 7.18381L12.3896 6.38131L10.9922 7.19085C10.7105 7.35303 10.373 7.10319 10.4396 6.7896H10.4382L10.7757 5.20991L9.57427 4.12944C9.33756 3.91569 9.45615 3.50506 9.80302 3.47694L11.3935 3.311L12.0483 1.83631C12.1829 1.53444 12.6038 1.54756 12.7313 1.83585ZM12.7927 3.81163L12.3901 2.90553L11.9982 3.78772C11.9504 3.91803 11.8322 4.01741 11.6846 4.03241L10.7011 4.1346L11.4371 4.79788C11.5327 4.88413 11.5819 5.01725 11.5529 5.15272L11.3471 6.12116L12.1988 5.62803C12.2561 5.5942 12.3214 5.57623 12.388 5.57598C12.4546 5.57574 12.52 5.59322 12.5776 5.62663L13.4344 6.12069L13.2296 5.16256C13.1991 5.03366 13.2376 4.89163 13.344 4.79741L14.0799 4.13413L13.0965 4.03194V4.03053C13.0311 4.02381 12.9687 4.00006 12.9154 3.96164C12.8621 3.92323 12.8198 3.8715 12.7927 3.81163ZM7.11099 18.7226C7.10678 18.7188 7.10302 18.7132 7.10021 18.7094C6.20584 17.568 5.67193 16.1304 5.67193 14.569C5.67193 10.8579 8.68037 7.85085 12.3901 7.85085C16.1011 7.85085 19.1082 10.8579 19.1082 14.569C19.1082 18.2787 16.1011 21.2871 12.3901 21.2871C10.2666 21.2871 8.35318 20.2999 7.11099 18.7226ZM7.58537 18.1104H8.37193V13.9873H6.45052C6.30427 15.4966 6.72943 16.9502 7.58537 18.1104ZM6.57146 13.2377H8.74646C8.92037 13.2377 9.06662 13.3558 9.10927 13.5152C9.64881 13.4726 10.021 13.3915 10.2333 13.1965C10.4832 12.9691 10.5666 12.5187 10.5165 11.6937C10.4686 10.9071 11.0199 10.3437 11.7296 10.511C11.9663 10.5668 12.2091 10.7051 12.4313 10.9376C13.0665 11.5329 13.0397 11.9712 12.9802 12.9583L12.9708 13.1191H13.9355C14.9827 13.1191 15.413 14.1115 15.0024 14.7588C15.4008 15.1404 15.4847 15.7779 15.1008 16.1885C15.3601 16.6085 15.2762 17.1771 14.9307 17.5226C15.3985 18.1896 14.8468 19.1398 13.8797 19.1398H11.2885C10.0711 19.1398 9.75381 18.5815 9.12006 18.5177C9.10412 18.709 8.94334 18.8594 8.74646 18.8594H8.24302C10.5844 21.1235 14.3072 21.0916 16.6102 18.7891C18.9408 16.4585 18.9408 12.6794 16.6102 10.3488C14.2796 8.01819 10.5005 8.01819 8.1699 10.3488C7.3899 11.1288 6.82506 12.1244 6.57146 13.2377ZM9.1224 14.2648V17.7635C9.99006 17.8076 10.2268 18.3893 11.288 18.3893H13.8793C14.2805 18.3893 14.6101 17.9669 14.0682 17.8062C13.6561 17.6838 13.748 17.0726 14.176 17.0726C14.4563 17.0726 14.5533 16.7908 14.4854 16.6207C14.4587 16.5541 14.3897 16.5049 14.2716 16.5049C14.0644 16.5049 13.8957 16.3362 13.8957 16.129C13.8957 15.9232 14.0644 15.7544 14.2716 15.7544C14.5627 15.7544 14.6635 15.6176 14.5679 15.4141C14.5093 15.2894 14.371 15.1868 14.1704 15.1868C13.9632 15.1868 13.7944 15.0194 13.7944 14.8123C13.7944 14.6051 13.9632 14.4377 14.1704 14.4377C14.4137 14.4377 14.4469 14.2371 14.3776 14.0894C14.3218 13.9685 14.1769 13.8701 13.9351 13.8701H12.5771C12.3563 13.8701 12.1838 13.6896 12.2035 13.4487C12.2129 13.2335 12.2236 13.0662 12.2326 12.9143C12.2776 12.1662 12.2977 11.8352 11.9124 11.478L11.8899 11.4555C11.5885 11.1312 11.2322 11.1288 11.2641 11.6496C11.3293 12.7244 11.1722 13.353 10.7377 13.7505C10.3702 14.0857 9.84943 14.2076 9.1224 14.2648ZM5.61849 5.30788L6.17771 6.566L7.54881 6.70944C7.87693 6.74413 7.99646 7.14772 7.76162 7.35913V7.36053L6.73599 8.28303L7.02427 9.63022C7.09084 9.94381 6.75193 10.2016 6.45943 10.0263L5.27677 9.34194L4.08381 10.0315C3.80209 10.1951 3.46318 9.94522 3.52974 9.63022L3.81802 8.28303L2.7924 7.361C2.55568 7.14725 2.67427 6.73663 3.02115 6.7085L4.37631 6.56647L4.93552 5.30835C5.07006 5.006 5.49099 5.0196 5.61849 5.30788ZM5.58427 7.0671L5.27724 6.37756L4.98099 7.04319C4.93318 7.17491 4.81506 7.27288 4.6674 7.28788L3.91927 7.36616L4.4799 7.8696C4.52841 7.91386 4.56458 7.96996 4.58488 8.03242C4.60518 8.09487 4.6089 8.16152 4.59568 8.22585L4.43771 8.96319L5.08599 8.58866C5.19896 8.5221 5.34381 8.51553 5.46474 8.58585L6.11724 8.96319L5.96162 8.23616C5.93115 8.10725 5.96959 7.96522 6.07459 7.8696L6.63521 7.36616L5.88709 7.28788C5.75818 7.27428 5.64006 7.1946 5.58427 7.0671ZM19.8441 5.30788L20.4047 6.566L21.7758 6.70944C22.104 6.74413 22.2221 7.14772 21.9872 7.35913L21.9886 7.36053L20.963 8.28256L21.2499 9.62975C21.3165 9.94335 20.979 10.2012 20.6865 10.0258L19.5038 9.34147L18.3108 10.0315C18.0291 10.1951 17.6902 9.94522 17.7568 9.63022L18.0436 8.28303L17.019 7.361C16.7813 7.14725 16.8994 6.73663 17.2477 6.7085L18.6029 6.56647L19.1621 5.30835C19.2952 5.006 19.718 5.0196 19.8441 5.30788ZM19.8094 7.0671L19.5038 6.37756L19.2076 7.04319C19.1597 7.17491 19.0416 7.27288 18.894 7.28788L18.1458 7.36616L18.7051 7.8696C18.8007 7.95725 18.8499 8.09038 18.8208 8.22585L18.6643 8.96319L19.3111 8.58866C19.4241 8.5221 19.569 8.51553 19.6913 8.58585L20.3424 8.96319L20.1882 8.23616C20.1563 8.10725 20.1947 7.96522 20.3011 7.8696L20.8618 7.36616L20.1141 7.28788C20.0484 7.28104 19.9857 7.25704 19.9322 7.21829C19.8787 7.17954 19.8364 7.12739 19.8094 7.0671Z" fill="white"/>
</svg>
