<svg width="24" height="24" viewBox="0 0 24 24" fill="none" xmlns="http://www.w3.org/2000/svg">
<path d="M17 20.5C18.3807 20.5 19.5 19.3807 19.5 18C19.5 16.6193 18.3807 15.5 17 15.5C15.6193 15.5 14.5 16.6193 14.5 18C14.5 19.3807 15.6193 20.5 17 20.5Z" fill="white"/>
<path d="M7 20.5C8.38071 20.5 9.5 19.3807 9.5 18C9.5 16.6193 8.38071 15.5 7 15.5C5.61929 15.5 4.5 16.6193 4.5 18C4.5 19.3807 5.61929 20.5 7 20.5Z" fill="white"/>
<path fill-rule="evenodd" clip-rule="evenodd" d="M1 8C1 7.44772 1.44772 7 2 7H8C8.55228 7 9 7.44772 9 8C9 8.55228 8.55228 9 8 9H2C1.44772 9 1 8.55228 1 8ZM1 11C1 10.4477 1.44772 10 2 10H6C6.55228 10 7 10.4477 7 11C7 11.5523 6.55228 12 6 12H2C1.44772 12 1 11.5523 1 11Z" fill="white"/>
<path fill-rule="evenodd" clip-rule="evenodd" d="M1 5.00035C0.999806 3.89565 1.89529 3 3 3H12.9998C14.1044 3 14.9998 3.89543 14.9998 5L17.8675 5.00002C18.9212 5.00002 19.8977 5.55292 20.4399 6.45653L22.8573 10.4855C22.9506 10.6409 22.9998 10.8188 22.9998 11V17C22.9998 18.1046 22.1044 19 20.9998 19L20.5635 18.9992C20.6524 18.6814 20.7 18.3463 20.7 18C20.7 15.9565 19.0435 14.3 17 14.3C14.9565 14.3 13.3 15.9565 13.3 18C13.3 18.3418 13.3463 18.6728 13.4331 18.987L10.5683 18.982C10.6541 18.6693 10.7 18.34 10.7 18C10.7 15.9565 9.04345 14.3 7 14.3C4.95655 14.3 3.3 15.9565 3.3 18C3.3 18.3418 3.34634 18.6727 3.43307 18.9869L3.02014 18.9907C1.90843 19.0009 1.00176 18.1025 1.00176 16.9908L1.00117 12.9607C1.30091 13.1137 1.64038 13.2 2 13.2H6C7.21503 13.2 8.2 12.215 8.2 11C8.2 10.7176 8.14677 10.4475 8.04981 10.1994C9.24183 10.173 10.2 9.19838 10.2 8C10.2 6.78497 9.21503 5.8 8 5.8H2C1.63997 5.8 1.30014 5.88648 1.00015 6.03981L1 5.00035ZM20.2336 10H14.9998V7L17.8674 7.00002C18.2187 7.00002 18.5442 7.18432 18.7249 7.48552L20.2336 10Z" fill="white"/>
<path d="M2.0001 12C1.46206 12 1.02327 11.5751 1.00099 11.0425L1.00098 10.9578C1.01543 10.6099 1.20755 10.308 1.48897 10.1403C1.63854 10.0512 1.81334 10 2.0001 10H6.0001C6.22526 10 6.43305 10.0744 6.6002 10.2C6.84303 10.3824 7.0001 10.6729 7.0001 11C7.0001 11.5523 6.55238 12 6.0001 12H2.0001Z" fill="white"/>
<path d="M1.00001 8.03013C1.01045 8.38305 1.20375 8.69006 1.48843 8.85968C1.638 8.94881 1.8128 9 1.99956 9H7.99956C8.55184 9 8.99956 8.55228 8.99956 8C8.99956 7.44772 8.55184 7 7.99956 7H1.99956C1.45725 7 1.01577 7.43168 1 7.97017L1.00001 8.03013Z" fill="white"/>
</svg>
