<svg width="24" height="24" viewBox="0 0 24 24" fill="none" xmlns="http://www.w3.org/2000/svg">
<path d="M11 18H15M13.5 8H14.4429C15.7533 8 16.4086 8 16.9641 8.31452C17.5196 8.62904 17.89 9.20972 18.6308 10.3711C19.1502 11.1854 19.6955 11.7765 20.4622 12.3024C21.2341 12.8318 21.6012 13.0906 21.8049 13.506C22 13.9038 22 14.375 22 15.3173C22 16.5596 22 17.1808 21.651 17.5755C21.636 17.5925 21.6207 17.609 21.6049 17.625C21.2375 18 20.6594 18 19.503 18H19" stroke="white" stroke-width="1.5" stroke-linecap="round" stroke-linejoin="round"/>
<path d="M5 18C3.58579 18 2.87868 18 2.43934 17.5607C2 17.1213 2 16.4142 2 15V8C2 6.58579 2 5.87868 2.43934 5.43934C2.87868 5 3.58579 5 5 5H10.5C11.9142 5 12.6213 5 13.0607 5.43934C13.5 5.87868 13.5 6.58579 13.5 8V18H9" stroke="white" stroke-width="1.5" stroke-linecap="round" stroke-linejoin="round"/>
<path d="M22 15H21" stroke="white" stroke-width="1.5" stroke-linecap="round" stroke-linejoin="round"/>
<path d="M8 9V13M10 11H6" stroke="white" stroke-width="1.5" stroke-linecap="round" stroke-linejoin="round"/>
<path d="M17 20C18.1046 20 19 19.1046 19 18C19 16.8954 18.1046 16 17 16C15.8954 16 15 16.8954 15 18C15 19.1046 15.8954 20 17 20Z" stroke="white" stroke-width="1.5"/>
<path d="M7 20C8.10457 20 9 19.1046 9 18C9 16.8954 8.10457 16 7 16C5.89543 16 5 16.8954 5 18C5 19.1046 5.89543 20 7 20Z" stroke="white" stroke-width="1.5"/>
</svg>
