<svg width="24" height="24" viewBox="0 0 24 24" fill="none" xmlns="http://www.w3.org/2000/svg">
<path d="M22.5947 9.87376C22.2069 9.53608 23.2543 10.4481 22.5947 9.87376V9.87376Z" fill="white"/>
<path d="M22.595 9.87371C22.1671 9.50099 21.6084 9.11195 21.6336 8.48651C21.6607 7.81931 21.9074 7.17587 21.9936 6.51563C22.073 5.90699 22.0243 5.25395 21.58 4.78763C21.1855 4.37315 20.6042 4.22387 20.056 4.14587C19.4424 4.05851 18.7696 4.09763 18.1824 3.88067C17.6359 3.67835 17.4321 2.91947 17.225 2.43563C17.0064 1.92491 16.7719 1.38947 16.3701 0.992993C15.9096 0.538193 15.2841 0.415553 14.6685 0.594593C13.966 0.799073 13.3768 1.26131 12.7341 1.59299C12.4975 1.71539 12.2193 1.85483 11.9448 1.83203C11.6244 1.80539 11.3164 1.62491 11.0428 1.47011C10.4232 1.11971 9.81092 0.664913 9.09524 0.537953C8.4758 0.428033 7.90244 0.662993 7.50068 1.13651C7.13108 1.57211 6.91532 2.11595 6.69332 2.63555C6.46052 3.18131 6.25604 3.78635 5.62436 3.93947C4.54748 4.20083 3.04028 3.91787 2.2934 4.94387C1.91372 5.46539 1.94108 6.14003 2.04548 6.74579C2.15396 7.37363 2.4278 8.04323 2.36588 8.68667C2.31188 9.24779 1.63244 9.67595 1.24676 10.0153C0.806598 10.4024 0.343878 10.8272 0.122118 11.3838C-0.389322 12.6673 0.818598 13.5918 1.65692 14.3413C1.87484 14.5364 2.10932 14.7416 2.26268 14.9939C2.41148 15.2389 2.37956 15.5418 2.33972 15.8128C2.24252 16.4752 2.01812 17.116 1.9814 17.7877C1.94804 18.3976 2.11436 19.004 2.62076 19.3852C3.07724 19.7288 3.67124 19.8253 4.22516 19.8863C4.535 19.9201 4.84628 19.9403 5.15564 19.9782C5.44196 20.0132 5.7866 20.0471 6.02756 20.2225C6.24572 20.3814 6.37556 20.6656 6.48836 20.9017C6.63116 21.2008 6.75236 21.5092 6.88748 21.8111C7.1114 22.3122 7.37876 22.8371 7.82876 23.1728C8.37524 23.5806 9.04748 23.5412 9.65228 23.29C10.3202 23.0125 10.8888 22.5404 11.5586 22.269C12.1884 22.0144 12.7344 22.389 13.2688 22.7063C13.8645 23.0603 14.512 23.4887 15.2316 23.4887C15.8385 23.4887 16.3288 23.1335 16.6636 22.6506C17.0032 22.1608 17.2015 21.5922 17.4451 21.0532C17.5636 20.7906 17.6899 20.5024 17.8941 20.2938C18.0936 20.0903 18.4135 20.0406 18.6825 20.0008C19.7544 19.8404 21.3136 19.9763 21.8611 18.7969C22.1294 18.2195 22.0248 17.5458 21.899 16.9463C21.8313 16.6218 21.749 16.3009 21.6902 15.975C21.6408 15.7002 21.5738 15.3604 21.6888 15.0928C21.9019 14.5972 22.475 14.235 22.8645 13.8863C23.2672 13.5258 23.6774 13.125 23.8809 12.6136C24.341 11.4596 23.3853 10.5618 22.595 9.87371ZM22.7894 12.0973C22.6768 12.5548 22.1484 12.9222 21.8121 13.2138C21.9261 13.1149 22.0221 13.0309 21.8071 13.2181C21.3256 13.6376 20.7849 14.0833 20.5545 14.6999C20.298 15.3856 20.4912 16.1507 20.6464 16.8364C20.735 17.2264 21.0669 18.146 20.6407 18.4415C20.4292 18.5881 20.1417 18.6275 19.8933 18.6628C19.5506 18.711 19.2048 18.7321 18.8606 18.7686C18.2397 18.8351 17.5759 18.9491 17.1026 19.3907C16.6317 19.8299 16.39 20.4623 16.1431 21.0416C15.9861 21.4091 15.707 22.3345 15.1776 22.2858C14.8843 22.2587 14.6016 22.0907 14.3505 21.9493C14.0155 21.7604 13.692 21.5524 13.3524 21.3724C12.7202 21.0373 12.0609 20.8492 11.3572 21.068C10.6586 21.2855 10.0723 21.7427 9.42716 22.0727C9.22076 22.178 8.90588 22.353 8.66444 22.2728C8.42324 22.1946 8.27252 21.9016 8.16308 21.6944C7.8554 21.1122 7.66604 20.4724 7.3178 19.9108C6.97196 19.3525 6.48308 19.0216 5.84516 18.8776C5.201 18.7324 4.53452 18.7511 3.88772 18.6258C3.6806 18.5855 3.39812 18.5308 3.26468 18.3474C3.113 18.1388 3.17516 17.7961 3.21116 17.5626C3.32036 16.8515 3.57356 16.1586 3.57236 15.4326C3.57116 14.7277 3.23012 14.1872 2.73932 13.708C2.27396 13.2532 1.65284 12.8708 1.30844 12.3083C0.977478 11.7671 1.64156 11.2688 2.00468 10.948C2.49428 10.515 3.05228 10.0933 3.35972 9.50147C3.69524 8.85491 3.56612 8.10491 3.4178 7.42523C3.3458 7.09619 3.26252 6.76859 3.2114 6.43523C3.1754 6.20123 3.113 5.85875 3.26492 5.65019C3.39836 5.46683 3.68084 5.41211 3.8882 5.37179C4.22372 5.30675 4.56644 5.28395 4.90604 5.25227C5.53028 5.19443 6.21212 5.12603 6.73484 4.74587C7.25252 4.36907 7.52444 3.74579 7.769 3.17531C7.89452 2.88227 8.01404 2.58539 8.16332 2.30339C8.27276 2.09627 8.42348 1.80299 8.66468 1.72475C8.90828 1.64675 9.21884 1.81859 9.42716 1.92515C9.76844 2.09987 10.0908 2.30891 10.4236 2.49851C11.0316 2.84483 11.6956 3.13907 12.4087 2.99195C13.1208 2.84483 13.7284 2.39891 14.3505 2.04803C14.6016 1.90643 14.8845 1.73867 15.1778 1.71155C15.4416 1.68707 15.6091 1.91195 15.7341 2.11355C16.4025 3.18851 16.5477 4.64891 17.938 5.06219C18.4173 5.20451 18.922 5.23523 19.4172 5.28131C19.8 5.31683 20.4247 5.31179 20.7124 5.61635C20.9769 5.89619 20.7871 6.51587 20.7187 6.83627C20.5975 7.40579 20.4319 7.97747 20.4331 8.56427C20.435 9.71531 21.3559 10.3592 22.1282 11.0624C22.3821 11.2933 22.888 11.6956 22.7894 12.0973Z" fill="white"/>
<path d="M15.6512 8.85624L11.0396 13.8823C10.983 13.9442 10.9806 13.9855 10.9079 13.9423L10.2592 13.56L8.42699 12.4802C8.20907 12.3518 8.00075 12.2162 7.73195 12.3007C7.23779 12.4555 7.17419 13.1352 7.61339 13.3939L9.00203 14.2123L10.6712 15.1958C11.026 15.4049 11.3387 15.3312 11.6082 15.0377L14.1049 12.3158L16.1041 10.1366L16.5251 9.678C17.054 9.10152 16.1804 8.2788 15.6512 8.85624Z" fill="white"/>
</svg>
