<svg width="25" height="24" viewBox="0 0 25 24" fill="none" xmlns="http://www.w3.org/2000/svg">
<path d="M12.667 24C6.03929 24 0.666992 18.627 0.666992 12C0.666992 5.37305 6.03929 0 12.667 0C19.2947 0 24.667 5.37305 24.667 12C24.667 18.627 19.2947 24 12.667 24ZM12.667 1.64062C6.94529 1.64062 2.30762 6.27834 2.30762 12C2.30762 17.7217 6.94534 22.3594 12.667 22.3594C18.3879 22.3594 23.0264 17.7217 23.0264 12C23.0264 6.27834 18.3879 1.64062 12.667 1.64062ZM14.917 18.75H10.417C10.0024 18.75 9.66699 18.4146 9.66699 18V16.5C9.66699 16.0854 10.0024 15.75 10.417 15.75H11.167V11.25H10.417C10.0024 11.25 9.66699 10.9146 9.66699 10.5V9.75C9.66699 9.33544 10.0024 9 10.417 9H12.667C13.4954 9 14.167 9.67163 14.167 10.5V15.75H14.917C15.3308 15.75 15.667 16.0854 15.667 16.5V18C15.667 18.4146 15.3308 18.75 14.917 18.75ZM14.167 16.5H13.417V10.5C13.417 10.0854 13.0808 9.75 12.667 9.75C12.5923 9.75 12.5249 9.77199 12.4568 9.79247C12.407 9.76758 12.3521 9.75 12.292 9.75H10.792C10.5847 9.75 10.417 9.91772 10.417 10.125C10.417 10.3323 10.5847 10.5 10.792 10.5H11.917V16.5H11.167C10.7524 16.5 10.417 16.8354 10.417 17.25C10.417 17.6646 10.7524 18 11.167 18H14.167C14.5816 18 14.917 17.6646 14.917 17.25C14.917 16.8354 14.5816 16.5 14.167 16.5ZM12.667 7.52344C11.8254 7.52344 11.1436 6.84155 11.1436 6C11.1436 5.15845 11.8254 4.47656 12.667 4.47656C13.5085 4.47656 14.1904 5.15845 14.1904 6C14.1904 6.84155 13.5085 7.52344 12.667 7.52344ZM12.667 5.23828C12.2466 5.23828 11.9053 5.57958 11.9053 6C11.9053 6.42042 12.2466 6.76172 12.667 6.76172C13.0874 6.76172 13.4287 6.42042 13.4287 6C13.4287 5.57958 13.0874 5.23828 12.667 5.23828Z" fill="white"/>
</svg>
